<svg xmlns="http://www.w3.org/2000/svg" xmlns:xlink="http://www.w3.org/1999/xlink" width="200" zoomAndPan="magnify" viewBox="0 0 150 52.499999" height="70" preserveAspectRatio="xMidYMid meet" version="1.0"><defs><clipPath id="8974955b98"><path d="M 0.707031 0 L 149.292969 0 L 149.292969 52.003906 L 0.707031 52.003906 Z M 0.707031 0 " clip-rule="nonzero"/></clipPath><clipPath id="e8e02f1448"><path d="M 37.023438 3.28125 L 115.03125 3.28125 L 115.03125 50.085938 L 37.023438 50.085938 Z M 37.023438 3.28125 " clip-rule="nonzero"/></clipPath></defs><g clip-path="url(#8974955b98)"><path fill="#ffffff" d="M 0.707031 0 L 149.292969 0 L 149.292969 52.003906 L 0.707031 52.003906 Z M 0.707031 0 " fill-opacity="1" fill-rule="nonzero"/><path fill="#ffffff" d="M 0.707031 0 L 149.292969 0 L 149.292969 52.003906 L 0.707031 52.003906 Z M 0.707031 0 " fill-opacity="1" fill-rule="nonzero"/></g><g clip-path="url(#e8e02f1448)"><path fill="#000000" d="M 55.429688 15.496094 L 70.144531 15.496094 L 70.144531 16.660156 L 56.78125 16.660156 L 56.78125 25.40625 L 69.347656 25.40625 L 69.347656 26.566406 L 56.78125 26.566406 L 56.78125 36.171875 L 70.296875 36.171875 L 70.296875 37.332031 L 55.429688 37.332031 Z M 71.460938 15.496094 L 73.027344 15.496094 L 79.953125 25.097656 L 87.035156 15.496094 L 96.664062 3.300781 L 80.839844 26.109375 L 88.996094 37.332031 L 87.371094 37.332031 L 79.953125 27.117188 L 72.503906 37.332031 L 70.910156 37.332031 L 79.125 26.109375 Z M 89.578125 16.660156 L 89.578125 15.496094 L 106.34375 15.496094 L 106.34375 16.660156 L 98.621094 16.660156 L 98.621094 37.332031 L 97.273438 37.332031 L 97.273438 16.660156 Z M 37.023438 15.496094 L 38.710938 15.496094 L 61.957031 50.066406 L 52.351562 37.332031 L 38.4375 17.148438 L 38.375 37.332031 L 37.027344 37.332031 L 37.027344 15.496094 Z M 106.207031 35.820312 C 105.933594 35.820312 105.726562 35.609375 105.726562 35.332031 C 105.726562 35.058594 105.933594 34.847656 106.207031 34.847656 C 106.484375 34.847656 106.691406 35.058594 106.691406 35.332031 C 106.691406 35.609375 106.488281 35.820312 106.207031 35.820312 Z M 107.53125 34.539062 L 108.253906 34.539062 C 108.265625 34.929688 108.550781 35.191406 108.96875 35.191406 C 109.4375 35.191406 109.703125 34.910156 109.703125 34.382812 L 109.703125 31.054688 L 110.441406 31.054688 L 110.441406 34.386719 C 110.441406 35.332031 109.886719 35.878906 108.976562 35.878906 C 108.121094 35.878906 107.53125 35.351562 107.53125 34.539062 Z M 111.402344 34.496094 L 112.128906 34.496094 C 112.191406 34.945312 112.632812 35.230469 113.265625 35.230469 C 113.855469 35.230469 114.285156 34.925781 114.285156 34.507812 C 114.285156 34.148438 114.011719 33.933594 113.386719 33.785156 L 112.777344 33.640625 C 111.917969 33.441406 111.53125 33.027344 111.53125 32.335938 C 111.53125 31.5 112.21875 30.941406 113.25 30.941406 C 114.210938 30.941406 114.914062 31.5 114.957031 32.292969 L 114.242188 32.292969 C 114.171875 31.855469 113.792969 31.585938 113.242188 31.585938 C 112.660156 31.585938 112.273438 31.863281 112.273438 32.289062 C 112.273438 32.625 112.523438 32.816406 113.140625 32.960938 L 113.660156 33.089844 C 114.632812 33.3125 115.03125 33.707031 115.03125 34.414062 C 115.03125 35.3125 114.328125 35.878906 113.207031 35.878906 C 112.160156 35.878906 111.453125 35.339844 111.402344 34.496094 Z M 111.402344 34.496094 " fill-opacity="1" fill-rule="nonzero"/></g></svg>