<svg xmlns="http://www.w3.org/2000/svg" xmlns:xlink="http://www.w3.org/1999/xlink" width="200" zoomAndPan="magnify" viewBox="0 0 150 52.499999" height="70" preserveAspectRatio="xMidYMid meet" version="1.0"><defs><clipPath id="e39c3119e5"><path d="M 52.613281 9.425781 L 104.621094 9.425781 L 104.621094 40.628906 L 52.613281 40.628906 Z M 52.613281 9.425781 " clip-rule="nonzero"/></clipPath></defs><g clip-path="url(#e39c3119e5)"><path fill="#000000" d="M 64.886719 17.570312 L 74.695312 17.570312 L 74.695312 18.34375 L 65.785156 18.34375 L 65.785156 24.175781 L 74.164062 24.175781 L 74.164062 24.949219 L 65.785156 24.949219 L 65.785156 31.351562 L 74.796875 31.351562 L 74.796875 32.125 L 64.886719 32.125 Z M 75.574219 17.570312 L 76.617188 17.570312 L 81.234375 23.972656 L 85.953125 17.570312 L 92.375 9.441406 L 81.824219 24.644531 L 87.261719 32.125 L 86.179688 32.125 L 81.234375 25.316406 L 76.269531 32.125 L 75.207031 32.125 L 80.679688 24.644531 Z M 87.648438 18.34375 L 87.648438 17.570312 L 98.828125 17.570312 L 98.828125 18.34375 L 93.679688 18.34375 L 93.679688 32.125 L 92.78125 32.125 L 92.78125 18.34375 Z M 52.613281 17.570312 L 53.738281 17.570312 L 69.238281 40.613281 L 62.832031 32.125 L 53.554688 18.671875 L 53.515625 32.125 L 52.617188 32.125 L 52.617188 17.570312 Z M 98.738281 31.117188 C 98.554688 31.117188 98.414062 30.976562 98.414062 30.792969 C 98.414062 30.609375 98.554688 30.46875 98.738281 30.46875 C 98.921875 30.46875 99.058594 30.609375 99.058594 30.792969 C 99.058594 30.976562 98.921875 31.117188 98.738281 31.117188 Z M 99.621094 30.265625 L 100.101562 30.265625 C 100.109375 30.523438 100.296875 30.699219 100.578125 30.699219 C 100.890625 30.699219 101.066406 30.511719 101.066406 30.160156 L 101.066406 27.941406 L 101.558594 27.941406 L 101.558594 30.164062 C 101.558594 30.792969 101.191406 31.15625 100.582031 31.15625 C 100.011719 31.15625 99.621094 30.804688 99.621094 30.265625 Z M 102.199219 30.234375 L 102.683594 30.234375 C 102.726562 30.535156 103.019531 30.722656 103.441406 30.722656 C 103.835938 30.722656 104.121094 30.523438 104.121094 30.242188 C 104.121094 30.003906 103.9375 29.859375 103.523438 29.761719 L 103.117188 29.664062 C 102.542969 29.53125 102.285156 29.257812 102.285156 28.796875 C 102.285156 28.238281 102.742188 27.867188 103.433594 27.867188 C 104.074219 27.867188 104.539062 28.238281 104.570312 28.765625 L 104.09375 28.765625 C 104.046875 28.476562 103.792969 28.296875 103.425781 28.296875 C 103.039062 28.296875 102.78125 28.480469 102.78125 28.761719 C 102.78125 28.988281 102.945312 29.117188 103.359375 29.210938 L 103.707031 29.296875 C 104.351562 29.445312 104.621094 29.707031 104.621094 30.179688 C 104.621094 30.78125 104.152344 31.15625 103.402344 31.15625 C 102.703125 31.15625 102.234375 30.796875 102.199219 30.234375 Z M 102.199219 30.234375 " fill-opacity="1" fill-rule="nonzero"/></g></svg>